<svg aria-hidden="true" style="position: absolute; width: 0; height: 0; overflow: hidden;" version="1.1" xmlns="http://www.w3.org/2000/svg" xmlns:xlink="http://www.w3.org/1999/xlink">
<defs>
<symbol id="icon-chevron-left" viewBox="0 0 32 32">
<path stroke-linejoin="round" stroke-linecap="round" stroke-miterlimit="4" stroke-width="3.5556" d="M20 24l-8-8 8-8"></path>
</symbol>
<symbol id="icon-chevron-right" viewBox="0 0 32 32">
<path stroke-linejoin="round" stroke-linecap="round" stroke-miterlimit="4" stroke-width="3.5556" d="M12 24l8-8-8-8"></path>
</symbol>
<symbol id="icon-close" viewBox="0 0 32 32">
<path stroke-linejoin="round" stroke-linecap="round" stroke-miterlimit="4" stroke-width="3.4286" d="M24 8l-16 16"></path>
<path stroke-linejoin="round" stroke-linecap="round" stroke-miterlimit="4" stroke-width="3.4286" d="M8 8l16 16"></path>
</symbol>
<symbol id="icon-exclamation-mark" viewBox="0 0 32 32">
<path d="M13.474 18.545c0.121 1.266 0.328 2.206 0.611 2.827 0.287 0.618 0.796 0.927 1.532 0.927 0.137 0 0.261-0.022 0.383-0.047 0.125 0.025 0.247 0.047 0.386 0.047 0.734 0 1.244-0.308 1.53-0.927 0.285-0.62 0.488-1.561 0.611-2.827l0.653-9.771c0.122-1.905 0.184-3.271 0.184-4.101 0-1.129-0.295-2.010-0.886-2.643-0.593-0.632-1.372-0.948-2.337-0.948-0.052 0-0.090 0.012-0.14 0.014-0.048-0.002-0.087-0.014-0.137-0.014-0.967 0-1.745 0.316-2.337 0.948s-0.888 1.515-0.888 2.643c0 0.83 0.060 2.196 0.184 4.101l0.652 9.77zM16.025 25.87c-0.937 0-1.733 0.295-2.394 0.886s-0.992 1.31-0.992 2.153c0 0.951 0.335 1.701 1 2.244 0.668 0.544 1.447 0.816 2.338 0.816 0.906 0 1.697-0.268 2.373-0.806 0.675-0.536 1.012-1.289 1.012-2.254 0-0.843-0.323-1.561-0.969-2.153s-1.436-0.887-2.37-0.887z"></path>
</symbol>
<symbol id="icon-eye" viewBox="0 0 32 32">
<path stroke-linejoin="round" stroke-linecap="round" stroke-miterlimit="4" stroke-width="2.88" d="M1.333 16c0 0 5.333-10.667 14.667-10.667s14.667 10.667 14.667 10.667c0 0-5.333 10.667-14.667 10.667s-14.667-10.667-14.667-10.667z"></path>
<path stroke-linejoin="round" stroke-linecap="round" stroke-miterlimit="4" stroke-width="2.88" d="M16 20c2.209 0 4-1.791 4-4s-1.791-4-4-4c-2.209 0-4 1.791-4 4s1.791 4 4 4z"></path>
</symbol>
<symbol id="icon-eye-off" viewBox="0 0 32 32">
<path stroke-linejoin="round" stroke-linecap="round" stroke-miterlimit="4" stroke-width="2.88" d="M23.92 23.92c-2.279 1.737-5.055 2.7-7.92 2.747-9.333 0-14.667-10.667-14.667-10.667 1.659-3.091 3.959-5.791 6.747-7.92M13.2 5.653c0.918-0.215 1.857-0.322 2.8-0.32 9.333 0 14.667 10.667 14.667 10.667-0.809 1.514-1.775 2.94-2.88 4.253M18.826 18.827c-0.366 0.393-0.808 0.708-1.298 0.927s-1.020 0.336-1.557 0.346-1.071-0.089-1.569-0.291c-0.498-0.201-0.951-0.5-1.33-0.88s-0.679-0.832-0.88-1.33c-0.201-0.498-0.3-1.032-0.29-1.569s0.127-1.067 0.346-1.557 0.534-0.932 0.927-1.298"></path>
<path stroke-linejoin="round" stroke-linecap="round" stroke-miterlimit="4" stroke-width="2.88" d="M1.333 1.333l29.333 29.333"></path>
</symbol>
<symbol id="icon-log-out" viewBox="0 0 32 32">
<path stroke-linejoin="round" stroke-linecap="round" stroke-miterlimit="4" stroke-width="3" d="M12 28h-5.333c-0.707 0-1.386-0.281-1.886-0.781s-0.781-1.178-0.781-1.886v-18.667c0-0.707 0.281-1.386 0.781-1.886s1.178-0.781 1.886-0.781h5.333"></path>
<path stroke-linejoin="round" stroke-linecap="round" stroke-miterlimit="4" stroke-width="3" d="M21.334 22.667l6.667-6.667-6.667-6.667"></path>
<path stroke-linejoin="round" stroke-linecap="round" stroke-miterlimit="4" stroke-width="3" d="M28 16h-16"></path>
</symbol>
<symbol id="icon-pen" viewBox="0 0 32 32">
<path stroke-linejoin="round" stroke-linecap="round" stroke-miterlimit="4" stroke-width="3.6" d="M22.666 4c0.35-0.35 0.766-0.628 1.223-0.817s0.948-0.287 1.443-0.287c0.495 0 0.986 0.098 1.443 0.287s0.873 0.467 1.224 0.817 0.628 0.766 0.817 1.223c0.19 0.458 0.287 0.948 0.287 1.443s-0.098 0.986-0.287 1.443c-0.189 0.458-0.467 0.873-0.817 1.223l-18 18-7.333 2 2-7.333 18-18z"></path>
</symbol>
<symbol id="icon-settings" viewBox="0 0 32 32">
<path stroke-linejoin="round" stroke-linecap="round" stroke-miterlimit="4" stroke-width="3" d="M16 20c2.209 0 4-1.791 4-4s-1.791-4-4-4c-2.209 0-4 1.791-4 4s1.791 4 4 4z"></path>
<path stroke-linejoin="round" stroke-linecap="round" stroke-miterlimit="4" stroke-width="3" d="M25.867 20c-0.178 0.402-0.231 0.848-0.152 1.281s0.285 0.832 0.592 1.146l0.080 0.080c0.248 0.248 0.445 0.542 0.579 0.865s0.203 0.671 0.203 1.021c0 0.35-0.069 0.697-0.203 1.021s-0.331 0.618-0.579 0.865c-0.248 0.248-0.542 0.445-0.866 0.579s-0.671 0.203-1.021 0.203c-0.35 0-0.697-0.069-1.021-0.203s-0.618-0.331-0.865-0.579l-0.080-0.080c-0.314-0.307-0.713-0.514-1.146-0.592s-0.879-0.025-1.281 0.152c-0.394 0.169-0.731 0.45-0.968 0.807s-0.364 0.777-0.366 1.206v0.227c0 0.707-0.281 1.386-0.781 1.886s-1.178 0.781-1.886 0.781-1.386-0.281-1.886-0.781c-0.5-0.5-0.781-1.178-0.781-1.886v-0.12c-0.010-0.441-0.153-0.869-0.41-1.228s-0.616-0.633-1.030-0.785c-0.402-0.178-0.848-0.231-1.281-0.152s-0.832 0.285-1.146 0.592l-0.080 0.080c-0.248 0.248-0.542 0.445-0.865 0.579s-0.671 0.203-1.021 0.203c-0.35 0-0.697-0.069-1.021-0.203s-0.618-0.331-0.865-0.579c-0.248-0.248-0.445-0.542-0.579-0.866s-0.203-0.671-0.203-1.021c0-0.35 0.069-0.697 0.203-1.021s0.331-0.618 0.579-0.865l0.080-0.080c0.307-0.314 0.514-0.713 0.592-1.146s0.025-0.879-0.152-1.281c-0.169-0.394-0.45-0.731-0.807-0.968s-0.777-0.364-1.206-0.366h-0.227c-0.707 0-1.386-0.281-1.886-0.781s-0.781-1.178-0.781-1.886c0-0.707 0.281-1.386 0.781-1.886s1.178-0.781 1.886-0.781h0.12c0.441-0.010 0.869-0.153 1.228-0.41s0.633-0.616 0.785-1.030c0.178-0.402 0.23-0.848 0.152-1.281s-0.285-0.832-0.592-1.146l-0.080-0.080c-0.248-0.248-0.445-0.542-0.579-0.866s-0.203-0.671-0.203-1.021c0-0.35 0.069-0.697 0.203-1.021s0.331-0.618 0.579-0.865c0.248-0.248 0.542-0.445 0.865-0.579s0.671-0.203 1.021-0.203c0.35 0 0.697 0.069 1.021 0.203s0.618 0.331 0.866 0.579l0.080 0.080c0.314 0.307 0.713 0.514 1.146 0.592s0.879 0.025 1.281-0.152h0.107c0.394-0.169 0.731-0.45 0.968-0.807s0.364-0.777 0.366-1.206v-0.227c0-0.707 0.281-1.386 0.781-1.886s1.178-0.781 1.886-0.781c0.707 0 1.386 0.281 1.886 0.781s0.781 1.178 0.781 1.886v0.12c0.002 0.429 0.129 0.848 0.366 1.206s0.573 0.638 0.968 0.807c0.402 0.177 0.848 0.23 1.281 0.152s0.832-0.285 1.146-0.592l0.080-0.080c0.248-0.248 0.542-0.445 0.865-0.579s0.671-0.203 1.021-0.203c0.35 0 0.697 0.069 1.021 0.203s0.618 0.331 0.865 0.579c0.248 0.248 0.445 0.542 0.579 0.865s0.203 0.671 0.203 1.021c0 0.35-0.069 0.697-0.203 1.021s-0.331 0.618-0.579 0.865l-0.080 0.080c-0.307 0.314-0.514 0.713-0.592 1.146s-0.025 0.879 0.152 1.281v0.107c0.169 0.394 0.45 0.731 0.807 0.968s0.777 0.364 1.206 0.366h0.227c0.707 0 1.386 0.281 1.886 0.781s0.781 1.178 0.781 1.886-0.281 1.386-0.781 1.886c-0.5 0.5-1.178 0.781-1.886 0.781h-0.12c-0.429 0.002-0.848 0.129-1.206 0.366s-0.638 0.573-0.807 0.968z"></path>
</symbol>
<symbol id="icon-trash" viewBox="0 0 32 32">
<path stroke-linejoin="round" stroke-linecap="round" stroke-miterlimit="4" stroke-width="3" d="M12 4h8"></path>
<path stroke-linejoin="round" stroke-linecap="round" stroke-miterlimit="4" stroke-width="3.6" d="M4 8h24M25.333 8l-0.935 14.026c-0.14 2.104-0.21 3.156-0.665 3.954-0.4 0.702-1.004 1.267-1.731 1.62-0.826 0.4-1.881 0.4-3.99 0.4h-4.025c-2.109 0-3.163 0-3.99-0.4-0.727-0.353-1.331-0.917-1.731-1.62-0.455-0.798-0.525-1.85-0.665-3.954l-0.935-14.026"></path>
</symbol>
<symbol id="icon-upload" viewBox="0 0 32 32">
<path stroke-linejoin="round" stroke-linecap="round" stroke-miterlimit="4" stroke-width="2.88" d="M28 20v5.333c0 0.707-0.281 1.386-0.781 1.886s-1.178 0.781-1.886 0.781h-18.667c-0.707 0-1.386-0.281-1.886-0.781s-0.781-1.178-0.781-1.886v-5.333"></path>
<path stroke-linejoin="round" stroke-linecap="round" stroke-miterlimit="4" stroke-width="2.88" d="M22.666 10.667l-6.667-6.667-6.667 6.667"></path>
<path stroke-linejoin="round" stroke-linecap="round" stroke-miterlimit="4" stroke-width="2.88" d="M16 4v16"></path>
</symbol>
</defs>
</svg>
